<svg width="176" height="167" viewBox="0 0 176 167" fill="none" xmlns="http://www.w3.org/2000/svg">
<g filter="url(#filter0_d_8_264)">
<path d="M45.1047 116.786V116.489C45.1047 116.219 45.3228 116 45.5918 116C45.8609 116 46.079 116.219 46.079 116.489V116.786C46.079 117.056 45.8609 117.275 45.5918 117.275C45.3228 117.275 45.1047 117.056 45.1047 116.786ZM40.3935 118.314C40.4837 118.47 40.6475 118.558 40.8159 118.558C40.8985 118.558 40.9823 118.537 41.0589 118.493C41.292 118.358 41.3719 118.059 41.2375 117.825L41.0893 117.568C40.9548 117.334 40.6568 117.254 40.4239 117.389C40.1908 117.524 40.1109 117.822 40.2453 118.056L40.3935 118.314ZM50.1246 118.493C50.2013 118.537 50.285 118.558 50.3677 118.558C50.536 118.558 50.6998 118.471 50.79 118.314L50.9383 118.056C51.0728 117.823 50.993 117.524 50.7599 117.389C50.527 117.254 50.229 117.334 50.0945 117.568L49.9462 117.825C49.8117 118.059 49.8915 118.358 50.1246 118.493ZM53.8651 122.065C53.9478 122.065 54.0316 122.044 54.1083 121.999L54.3651 121.851C54.5981 121.716 54.6779 121.417 54.5433 121.183C54.4088 120.95 54.1109 120.869 53.8778 121.004L53.621 121.153C53.3881 121.288 53.3083 121.587 53.4428 121.821C53.533 121.977 53.6967 122.065 53.8651 122.065ZM55.1315 130.73C54.4989 131.987 52.7311 132.832 50.7326 132.832C49.3626 132.832 48.0792 132.436 47.2068 131.757C46.707 132.101 46.1794 132.322 45.6566 132.39C45.6328 132.393 45.6089 132.394 45.5858 132.394C45.5664 132.393 45.5468 132.392 45.5272 132.39C45.0043 132.322 44.4767 132.101 43.9769 131.757C43.1044 132.436 41.8212 132.832 40.4511 132.832C38.4526 132.832 36.6848 131.987 36.0522 130.73C35.9826 130.592 35.9826 130.428 36.0522 130.29C36.519 129.362 37.5864 128.658 38.937 128.353C38.2362 127.355 37.9803 126.175 38.2977 125.166C38.3365 125.043 38.4227 124.94 38.5372 124.88C39.3377 124.461 40.3528 124.431 41.3411 124.779C41.4878 124.291 41.7186 123.867 42.0314 123.536C42.1385 123.423 42.293 123.368 42.4471 123.388C42.7026 123.421 42.9593 123.491 43.2134 123.594C43.7288 122.501 44.4885 121.686 45.3885 121.272C45.5175 121.213 45.6659 121.213 45.7949 121.272C46.6946 121.686 47.4541 122.5 47.9696 123.592C48.2237 123.49 48.4806 123.421 48.7366 123.388C48.8909 123.368 49.0452 123.423 49.1522 123.536C49.4651 123.867 49.6959 124.291 49.8426 124.778C50.8309 124.431 51.846 124.462 52.6464 124.88C52.7609 124.939 52.8471 125.042 52.8859 125.166C53.2034 126.175 52.9475 127.355 52.2466 128.353C53.5973 128.658 54.6647 129.362 55.1315 130.29C55.2011 130.428 55.2011 130.592 55.1315 130.73ZM49.2328 129.344C49.7619 129.212 50.2874 128.941 50.7503 128.551C51.6958 127.756 52.1911 126.597 52.0077 125.661C51.4354 125.438 50.7217 125.473 50.0183 125.756C50.0859 126.668 49.9219 127.7 49.5166 128.715C49.4305 128.931 49.3355 129.141 49.2328 129.344ZM44.0676 124.07C44.6288 124.47 45.1523 125.025 45.5908 125.689C46.0315 125.018 46.5545 124.464 47.1143 124.066C46.7391 123.253 46.202 122.617 45.5918 122.266C44.9806 122.618 44.4428 123.255 44.0676 124.07ZM40.4332 128.551C40.8961 128.941 41.4218 129.212 41.9509 129.344C41.8482 129.141 41.7533 128.931 41.667 128.715C41.2619 127.7 41.0979 126.668 41.1654 125.756C40.462 125.472 39.7483 125.438 39.1759 125.661C38.9925 126.597 39.4878 127.756 40.4332 128.551ZM43.2073 131.109C42.9975 130.898 42.7971 130.664 42.6093 130.412C41.6439 130.395 40.6368 129.998 39.8069 129.3C39.772 129.27 39.7377 129.241 39.7038 129.211C38.5172 129.358 37.5228 129.849 37.0549 130.51C37.6237 131.312 38.9686 131.855 40.451 131.855C41.5034 131.855 42.51 131.577 43.2073 131.109ZM45.4025 127.426C44.917 126.209 44.1053 125.205 43.2521 124.699C43.2282 124.687 43.2057 124.674 43.1846 124.66C42.9827 124.546 42.779 124.461 42.577 124.408C42.375 124.697 42.2398 125.068 42.1725 125.49C42.1708 125.516 42.167 125.541 42.1611 125.567C42.0487 126.382 42.1828 127.378 42.5715 128.352C42.9639 129.336 43.5693 130.18 44.2375 130.735C44.2531 130.746 44.2681 130.758 44.2826 130.772C44.6446 131.064 45.024 131.272 45.3971 131.37C45.9959 130.512 46.0078 128.943 45.4025 127.426ZM48.612 128.352C49.0007 127.378 49.1348 126.383 49.0227 125.568C49.0165 125.542 49.0126 125.515 49.0109 125.489C48.9436 125.067 48.8084 124.697 48.6066 124.408C48.4076 124.46 48.2067 124.543 48.0071 124.654C47.9808 124.673 47.9521 124.69 47.9214 124.703C47.2587 125.098 46.6192 125.794 46.1377 126.67C46.1973 126.798 46.2538 126.929 46.3071 127.063C46.8595 128.447 46.9636 129.862 46.6438 130.963C46.7307 130.904 46.8171 130.84 46.9024 130.771C46.9159 130.758 46.93 130.747 46.9445 130.736C47.6134 130.181 48.2194 129.336 48.612 128.352ZM54.1287 130.51C53.6608 129.849 52.6663 129.358 51.4797 129.211C51.4459 129.241 51.4114 129.27 51.3766 129.3C50.5467 129.998 49.5397 130.395 48.5744 130.412C48.3865 130.664 48.1862 130.898 47.9763 131.109C48.6737 131.577 49.6803 131.855 50.7326 131.855C52.2149 131.855 53.5599 131.312 54.1287 130.51ZM50.3145 134.123C50.1116 133.946 49.8039 133.968 49.6271 134.171C49.3199 134.525 47.8648 135.023 45.5918 135.023C43.3188 135.023 41.8637 134.525 41.5565 134.171C41.3798 133.968 41.0721 133.946 40.8692 134.123C40.6663 134.301 40.6451 134.609 40.8218 134.813C41.5829 135.689 43.8671 136 45.5919 136C47.3167 136 49.6008 135.689 50.3619 134.813C50.5386 134.609 50.5173 134.301 50.3145 134.123ZM39.1877 123.785C39.4465 123.859 39.7157 123.707 39.7887 123.448C40.5169 120.855 42.9033 119.045 45.5918 119.045C48.2804 119.045 50.6668 120.855 51.395 123.448C51.4556 123.663 51.651 123.804 51.8637 123.804C51.9074 123.804 51.9519 123.798 51.996 123.785C52.255 123.712 52.4058 123.442 52.3328 123.183C51.4868 120.171 48.7148 118.068 45.5918 118.068C42.4689 118.068 39.6969 120.171 38.8509 123.183C38.7779 123.442 38.9287 123.712 39.1877 123.785ZM45.5918 134.358C46.0104 134.358 47.4148 134.313 47.9147 133.737C48.0913 133.534 48.07 133.225 47.8671 133.048C47.6653 132.872 47.3596 132.892 47.1826 133.092C47.0715 133.194 46.4948 133.381 45.5918 133.381C44.6886 133.381 44.112 133.194 44.0009 133.092C43.8238 132.892 43.5183 132.872 43.3164 133.048C43.1135 133.225 43.0923 133.534 43.269 133.737C43.769 134.313 45.1734 134.358 45.5918 134.358ZM36.8185 121.851L37.0752 121.999C37.1519 122.044 37.2357 122.065 37.3185 122.065C37.4868 122.065 37.6504 121.977 37.7407 121.821C37.8754 121.587 37.7956 121.288 37.5626 121.153L37.306 121.004C37.0732 120.87 36.7751 120.949 36.6405 121.183C36.5059 121.417 36.5856 121.716 36.8185 121.851Z" fill="white"/>
</g>
<defs>
<filter id="filter0_d_8_264" x="-84" y="0" width="259.184" height="260" filterUnits="userSpaceOnUse" color-interpolation-filters="sRGB">
<feFlood flood-opacity="0" result="BackgroundImageFix"/>
<feColorMatrix in="SourceAlpha" type="matrix" values="0 0 0 0 0 0 0 0 0 0 0 0 0 0 0 0 0 0 127 0" result="hardAlpha"/>
<feOffset dy="4"/>
<feGaussianBlur stdDeviation="60"/>
<feColorMatrix type="matrix" values="0 0 0 0 1 0 0 0 0 1 0 0 0 0 1 0 0 0 1 0"/>
<feBlend mode="normal" in2="BackgroundImageFix" result="effect1_dropShadow_8_264"/>
<feBlend mode="normal" in="SourceGraphic" in2="effect1_dropShadow_8_264" result="shape"/>
</filter>
</defs>
</svg>
