<svg width="189" height="242" viewBox="0 0 189 242" fill="none" xmlns="http://www.w3.org/2000/svg">
<g filter="url(#filter0_d_8_265)">
<path d="M58.4921 116.786V116.489C58.4921 116.219 58.7195 116 59 116C59.2805 116 59.5079 116.219 59.5079 116.489V116.786C59.5079 117.056 59.2805 117.275 59 117.275C58.7195 117.275 58.4921 117.056 58.4921 116.786ZM53.5805 118.314C53.6745 118.47 53.8452 118.558 54.0209 118.558C54.107 118.558 54.1943 118.537 54.2742 118.493C54.5172 118.358 54.6005 118.059 54.4604 117.825L54.3059 117.568C54.1657 117.334 53.855 117.254 53.6122 117.389C53.3692 117.524 53.2859 117.822 53.426 118.056L53.5805 118.314ZM63.7256 118.493C63.8056 118.537 63.8929 118.558 63.9791 118.558C64.1546 118.558 64.3253 118.471 64.4194 118.314L64.574 118.056C64.7142 117.823 64.631 117.524 64.388 117.389C64.1451 117.254 63.8345 117.334 63.6942 117.568L63.5397 117.825C63.3994 118.059 63.4827 118.358 63.7256 118.493ZM67.6253 122.065C67.7115 122.065 67.7989 122.044 67.8789 121.999L68.1466 121.851C68.3895 121.716 68.4727 121.417 68.3324 121.183C68.1921 120.95 67.8815 120.869 67.6386 121.004L67.3709 121.153C67.128 121.288 67.0448 121.587 67.185 121.821C67.2791 121.977 67.4498 122.065 67.6253 122.065ZM68.9456 130.73C68.286 131.987 66.4431 132.832 64.3595 132.832C62.9312 132.832 61.5933 132.436 60.6837 131.757C60.1626 132.101 59.6125 132.322 59.0675 132.39C59.0427 132.393 59.0178 132.394 58.9937 132.394C58.9734 132.393 58.953 132.392 58.9326 132.39C58.3875 132.322 57.8374 132.101 57.3163 131.757C56.4068 132.436 55.0689 132.832 53.6405 132.832C51.557 132.832 49.714 131.987 49.0545 130.73C48.9819 130.592 48.9818 130.428 49.0545 130.29C49.5411 129.362 50.6539 128.658 52.062 128.353C51.3313 127.355 51.0645 126.175 51.3954 125.166C51.436 125.043 51.5258 124.94 51.6452 124.88C52.4797 124.461 53.5381 124.431 54.5684 124.779C54.7213 124.291 54.962 123.867 55.2881 123.536C55.3997 123.423 55.5608 123.368 55.7214 123.388C55.9879 123.421 56.2554 123.491 56.5203 123.594C57.0577 122.501 57.8497 121.686 58.788 121.272C58.9225 121.213 59.0772 121.213 59.2117 121.272C60.1497 121.686 60.9415 122.5 61.479 123.592C61.7439 123.49 62.0117 123.421 62.2786 123.388C62.4394 123.368 62.6004 123.423 62.7119 123.536C63.0381 123.867 63.2787 124.291 63.4317 124.778C64.462 124.431 65.5203 124.462 66.3548 124.88C66.4741 124.939 66.5639 125.042 66.6045 125.166C66.9355 126.175 66.6687 127.355 65.9379 128.353C67.3462 128.658 68.459 129.362 68.9456 130.29C69.0181 130.428 69.0181 130.592 68.9456 130.73ZM62.7959 129.344C63.3475 129.212 63.8954 128.941 64.378 128.551C65.3637 127.756 65.88 126.597 65.6888 125.661C65.0922 125.438 64.3481 125.473 63.6148 125.756C63.6853 126.668 63.5143 127.7 63.0918 128.715C63.002 128.931 62.903 129.141 62.7959 129.344ZM57.4109 124.07C57.996 124.47 58.5418 125.025 58.9989 125.689C59.4584 125.018 60.0036 124.464 60.5873 124.066C60.1961 123.253 59.6362 122.617 59 122.266C58.3627 122.618 57.8021 123.255 57.4109 124.07ZM53.6219 128.551C54.1044 128.941 54.6525 129.212 55.2041 129.344C55.097 129.141 54.9981 128.931 54.9082 128.715C54.4858 127.7 54.3148 126.668 54.3852 125.756C53.6519 125.472 52.9078 125.438 52.3111 125.661C52.1199 126.597 52.6362 127.756 53.6219 128.551ZM56.514 131.109C56.2953 130.898 56.0863 130.664 55.8905 130.412C54.884 130.395 53.8341 129.998 52.9689 129.3C52.9325 129.27 52.8967 129.241 52.8614 129.211C51.6243 129.358 50.5876 129.849 50.0998 130.51C50.6928 131.312 52.0949 131.855 53.6404 131.855C54.7376 131.855 55.787 131.577 56.514 131.109ZM58.8026 127.426C58.2965 126.209 57.4502 125.205 56.5607 124.699C56.5358 124.687 56.5124 124.674 56.4903 124.66C56.2798 124.546 56.0674 124.461 55.8568 124.408C55.6463 124.697 55.5053 125.068 55.4352 125.49C55.4334 125.516 55.4294 125.541 55.4233 125.567C55.306 126.382 55.4459 127.378 55.8512 128.352C56.2603 129.336 56.8914 130.18 57.588 130.735C57.6043 130.746 57.62 130.758 57.635 130.772C58.0125 131.064 58.408 131.272 58.797 131.37C59.4212 130.512 59.4337 128.943 58.8026 127.426ZM62.1487 128.352C62.5539 127.378 62.6937 126.383 62.5768 125.568C62.5704 125.542 62.5664 125.515 62.5646 125.489C62.4944 125.067 62.3535 124.697 62.143 124.408C61.9356 124.46 61.7261 124.543 61.5181 124.654C61.4906 124.673 61.4607 124.69 61.4287 124.703C60.7378 125.098 60.071 125.794 59.5691 126.67C59.6313 126.798 59.6902 126.929 59.7457 127.063C60.3216 128.447 60.4302 129.862 60.0967 130.963C60.1874 130.904 60.2774 130.84 60.3663 130.771C60.3804 130.758 60.3951 130.747 60.4103 130.736C61.1075 130.181 61.7394 129.336 62.1487 128.352ZM67.9002 130.51C67.4124 129.849 66.3755 129.358 65.1384 129.211C65.1031 129.241 65.0672 129.27 65.0309 129.3C64.1657 129.998 63.1158 130.395 62.1094 130.412C61.9136 130.664 61.7047 130.898 61.486 131.109C62.213 131.577 63.2625 131.855 64.3595 131.855C65.9049 131.855 67.3071 131.312 67.9002 130.51ZM63.9236 134.123C63.7121 133.946 63.3913 133.968 63.207 134.171C62.8867 134.525 61.3697 135.023 59 135.023C56.6302 135.023 55.1132 134.525 54.793 134.171C54.6087 133.968 54.2879 133.946 54.0764 134.123C53.8649 134.301 53.8428 134.609 54.027 134.813C54.8205 135.689 57.2018 136 59.0001 136C60.7982 136 63.1796 135.689 63.9731 134.813C64.1572 134.609 64.1351 134.301 63.9236 134.123ZM52.3233 123.785C52.5931 123.859 52.8738 123.707 52.9499 123.448C53.7091 120.855 56.197 119.045 59 119.045C61.803 119.045 64.2909 120.855 65.0501 123.448C65.1132 123.663 65.317 123.804 65.5387 123.804C65.5843 123.804 65.6307 123.798 65.6767 123.785C65.9467 123.712 66.1039 123.442 66.0278 123.183C65.1458 120.171 62.2558 118.068 59 118.068C55.7441 118.068 52.8542 120.171 51.9722 123.183C51.8961 123.442 52.0533 123.712 52.3233 123.785ZM59 134.358C59.4363 134.358 60.9005 134.313 61.4217 133.737C61.6058 133.534 61.5837 133.225 61.3721 133.048C61.1617 132.872 60.843 132.892 60.6584 133.092C60.5426 133.194 59.9414 133.381 59 133.381C58.0584 133.381 57.4571 133.194 57.3414 133.092C57.1568 132.892 56.8382 132.872 56.6278 133.048C56.4162 133.225 56.3941 133.534 56.5783 133.737C57.0996 134.313 58.5637 134.358 59 134.358ZM49.8534 121.851L50.1209 121.999C50.2009 122.044 50.2883 122.065 50.3746 122.065C50.55 122.065 50.7207 121.977 50.8148 121.821C50.9552 121.587 50.872 121.288 50.6291 121.153L50.3616 121.004C50.1189 120.87 49.8081 120.949 49.6678 121.183C49.5274 121.417 49.6105 121.716 49.8534 121.851Z" fill="white"/>
</g>
<defs>
<filter id="filter0_d_8_265" x="-71" y="0" width="260" height="260" filterUnits="userSpaceOnUse" color-interpolation-filters="sRGB">
<feFlood flood-opacity="0" result="BackgroundImageFix"/>
<feColorMatrix in="SourceAlpha" type="matrix" values="0 0 0 0 0 0 0 0 0 0 0 0 0 0 0 0 0 0 127 0" result="hardAlpha"/>
<feOffset dy="4"/>
<feGaussianBlur stdDeviation="60"/>
<feColorMatrix type="matrix" values="0 0 0 0 1 0 0 0 0 1 0 0 0 0 1 0 0 0 1 0"/>
<feBlend mode="normal" in2="BackgroundImageFix" result="effect1_dropShadow_8_265"/>
<feBlend mode="normal" in="SourceGraphic" in2="effect1_dropShadow_8_265" result="shape"/>
</filter>
</defs>
</svg>
